<svg id="Layer_5" enable-background="new 0 0 64 64" height="48" viewBox="0 0 64 64" width="48" xmlns="http://www.w3.org/2000/svg" xmlns:xlink="http://www.w3.org/1999/xlink"><linearGradient id="SVGID_1_" gradientUnits="userSpaceOnUse" x1="32" x2="32" y1="63" y2="1"><stop offset="0" stop-color="#9f2fff"/><stop offset="1" stop-color="#0bb1d3"/></linearGradient><path d="m14 13v1c0 .551.449 1 1 1h2c1.654 0 3 1.346 3 3v3h-3v2h-2v-2c-1.654 0-3-1.346-3-3h2c0 .551.449 1 1 1h3v-1c0-.551-.449-1-1-1h-2c-1.654 0-3-1.346-3-3v-3h3v-2h2v2c1.654 0 3 1.346 3 3h-2c0-.551-.449-1-1-1zm2 14c2.535 0 5.01-.885 6.97-2.491l-1.269-1.547c-1.602 1.314-3.627 2.038-5.701 2.038-4.962 0-9-4.038-9-9 0-2.074.724-4.099 2.038-5.701l-1.547-1.269c-1.606 1.96-2.491 4.435-2.491 6.97 0 6.065 4.935 11 11 11zm0-20c4.962 0 9 4.038 9 9 0 2.074-.724 4.099-2.038 5.701l1.547 1.269c1.606-1.96 2.491-4.435 2.491-6.97 0-6.065-4.935-11-11-11-2.535 0-5.01.885-6.97 2.491l1.269 1.547c1.602-1.314 3.627-2.038 5.701-2.038zm32 50c-4.962 0-9-4.037-9-9 0-2.074.724-4.099 2.038-5.702l-1.547-1.268c-1.606 1.96-2.491 4.435-2.491 6.97 0 6.065 4.935 11 11 11 2.536 0 5.011-.885 6.97-2.491l-1.269-1.547c-1.602 1.314-3.627 2.038-5.701 2.038zm0-20c-2.536 0-5.011.885-6.97 2.491l1.269 1.547c1.602-1.314 3.627-2.038 5.701-2.038 4.962 0 9 4.037 9 9 0 2.074-.724 4.099-2.038 5.702l1.547 1.268c1.606-1.96 2.491-4.435 2.491-6.97 0-6.065-4.935-11-11-11zm3.293 5.293-3.293 3.293-3.293-3.293-1.414 1.414 3.293 3.293h-1.586v2h2v2h-2v2h2v2h2v-2h2v-2h-2v-2h2v-2h-1.586l3.293-3.293zm8.114-16.015 3.593.952v9.539l-3.595.953c-.032.15-.068.298-.102.447 2.295 2.637 3.697 6.07 3.697 9.831 0 8.271-6.729 15-15 15-3.761 0-7.195-1.402-9.831-3.697-.149.034-.297.071-.447.102l-.952 3.595h-9.54l-.953-3.594c-3.443-.713-6.67-2.05-9.612-3.98l-3.214 1.867-6.745-6.745 1.867-3.214c-1.93-2.94-3.267-6.169-3.981-9.611l-3.592-.953v-9.54l3.595-.953c.032-.15.068-.298.102-.447-2.295-2.636-3.697-6.069-3.697-9.83 0-8.271 6.729-15 15-15 3.761 0 7.194 1.402 9.83 3.697.149-.034.297-.071.447-.102l.953-3.595h9.539l.953 3.593c3.444.714 6.671 2.051 9.612 3.981l3.214-1.867 6.745 6.745-1.867 3.214c1.93 2.94 3.266 6.168 3.981 9.612zm-56.407-10.278c0 7.168 5.832 13 13 13s13-5.832 13-13-5.832-13-13-13-13 5.832-13 13zm49 16c0-11.028-8.972-20-20-20-.487 0-.994.026-1.539.075.341 1.253.539 2.565.539 3.925 0 .013-.002.026-.002.039.347-.025.678-.039 1.002-.039 8.822 0 16 7.178 16 16 0 .324-.014.655-.039 1.002.013 0 .026-.002.039-.002 1.36 0 2.672.198 3.925.539.049-.545.075-1.052.075-1.539zm-22.415-9.682c.788-.197 1.595-.318 2.415-.318 5.514 0 10 4.486 10 10 0 .82-.121 1.627-.318 2.415 1.326-.619 2.753-1.047 4.254-1.255.038-.41.064-.798.064-1.16 0-7.72-6.28-14-14-14-.362 0-.75.026-1.159.064-.208 1.501-.637 2.929-1.256 4.254zm-17.585 9.682c0 11.028 8.972 20 20 20 .487 0 .994-.027 1.539-.075-.341-1.253-.539-2.565-.539-3.925 0-.013.002-.026.002-.039-.347.025-.679.039-1.002.039-8.822 0-16-7.178-16-16 0-.324.014-.655.039-1.002-.013 0-.026.002-.039.002-1.36 0-2.672-.198-3.925-.539-.049.545-.075 1.052-.075 1.539zm22.415 9.682c-.788.197-1.595.318-2.415.318-5.514 0-10-4.486-10-10 0-.82.121-1.627.318-2.415-1.326.619-2.753 1.047-4.254 1.255-.038.41-.064.798-.064 1.16 0 7.72 6.28 14 14 14 .361 0 .75-.026 1.159-.064.208-1.501.636-2.929 1.256-4.254zm4.393-5.51c.775-1.262 1.192-2.698 1.192-4.172 0-4.411-3.589-8-8-8-1.474 0-2.911.417-4.172 1.192-.767.984-1.651 1.869-2.635 2.635-.776 1.262-1.193 2.699-1.193 4.173 0 4.411 3.589 8 8 8 1.473 0 2.91-.417 4.172-1.192.767-.984 1.652-1.869 2.636-2.636zm-2.696 21.504.381-.07c-.936-1.119-1.713-2.375-2.294-3.734-.795.086-1.508.128-2.199.128-12.131 0-22-9.869-22-22 0-.691.042-1.404.128-2.199-1.36-.581-2.616-1.358-3.735-2.295l-.071.382-3.322.882v6.461l3.323.882.115.623c.665 3.608 2.057 6.97 4.139 9.992l.359.521-1.727 2.973 4.569 4.569 2.972-1.727.522.359c3.023 2.082 6.385 3.475 9.993 4.138l.624.114.881 3.325h6.461zm24.888-9.676c0-7.168-5.832-13-13-13s-13 5.832-13 13 5.832 13 13 13 13-5.832 13-13zm0-19.23-3.323-.881-.115-.623c-.665-3.609-2.057-6.971-4.139-9.993l-.359-.522 1.727-2.972-4.569-4.569-2.972 1.727-.522-.359c-3.022-2.082-6.384-3.474-9.993-4.139l-.623-.115-.882-3.324h-6.46l-.881 3.323-.382.071c.936 1.119 1.714 2.375 2.295 3.735.794-.087 1.507-.129 2.198-.129 12.131 0 22 9.869 22 22 0 .691-.042 1.404-.128 2.199 1.36.581 2.616 1.358 3.735 2.294l.071-.382 3.322-.881z" fill="url(#SVGID_1_)"/></svg>