<svg id="Layer_1" height="48" viewBox="0 0 512 512" width="48" xmlns="http://www.w3.org/2000/svg" xmlns:xlink="http://www.w3.org/1999/xlink" data-name="Layer 1"><linearGradient id="linear-gradient" gradientUnits="userSpaceOnUse" x1="257.611" x2="257.611" y1="467" y2="44.882"><stop offset=".322" stop-color="#a163f5"/><stop offset=".466" stop-color="#b074ee"/><stop offset=".752" stop-color="#d8a1dd"/><stop offset=".898" stop-color="#efbad3"/></linearGradient><linearGradient id="linear-gradient-2" x1="319.319" x2="319.319" xlink:href="#linear-gradient" y1="467.001" y2="44.883"/><linearGradient id="linear-gradient-3" x1="221.076" x2="221.076" xlink:href="#linear-gradient" y1="467" y2="44.882"/><linearGradient id="linear-gradient-4" x1="247.539" x2="247.539" xlink:href="#linear-gradient" y1="466.999" y2="44.881"/><path d="m359.354 220.132a19.56 19.56 0 0 0 11.475-8.677c5.25-8.8 3.554-22.1-5.023-39.592 10.308-2.847 27.95-9.738 36.754-24.909l14.31-1.2a6 6 0 0 0 3.925-10.028c-20.676-22.61-44.6-25.162-54.947-25.078-.709-2.03-1.488-4-2.352-5.889 6.232-2.253 14.561-6.566 19.061-14.373 2.54-4.406 4.8-11.768 1.137-21.818-5.1-14-12.271-15.029-19.25-14.044a14.864 14.864 0 0 1 -1.93.2c-.367-.381-1.753-2.2-3.186-8.98-1.82-8.609-5.526-14.4-11.014-17.2-3.548-1.814-9.579-3.175-18.182.635a13.6 13.6 0 0 1 -13.751-1.459c-7-5.179-14.025-7.8-20.82-7.706-12.413.116-17.745 5.477-20.031 9.955-3.64 7.127-2.357 17.326 3.815 30.314 1.281 2.7 2.635 5.222 3.9 7.446a79.061 79.061 0 0 0 -36.91 15.27c-14.411 10.688-26.985 26.339-38.442 47.846-20.392 38.283-32.541 86.847-42.3 125.869-6.911 27.631-12.881 51.493-18.992 59.506-16.858 22.1-49.457 41.877-67.39 51.7a6 6 0 1 0 5.764 10.525c13.56-7.425 35.175-20.347 52.993-35.949 7.323 2.128 24.67 5.861 40.645-.523-2.056 9.948-6.554 21.527-15.387 23.186a6 6 0 0 0 -.685 11.623c1.194.374 25.391 7.642 47.767-7.842-1.22 9.634-3.422 19.143-6.567 22.068-3.688 3.43-3.407 6.781-2.911 8.473s2.076 4.68 7.06 5.58c8.415 1.524 28.372-3 42.533-13.871.9 9.238.647 20.061-3.475 24.448a6 6 0 0 0 3.018 9.953c1.223.285 27.309 5.965 54-16.8.388 13.229-1.107 24.5-3.944 26.777a6 6 0 0 0 3.675 10.681c1.97.025 43.3.223 63.081-24.564 3.236 9.4 5.407 19.68 3.208 24.329a6 6 0 0 0 7.361 8.244c17.241-5.879 25.691-19.119 29.317-31.432a47.428 47.428 0 0 0 5.367 5.767c-.681 8.655-3.632 34.962-15.034 51.389a6 6 0 1 0 9.858 6.843c11-15.849 15.073-38.475 16.547-51.147a31.851 31.851 0 0 0 5.241 1.494 6 6 0 0 0 6.891-4.2c10-33.961-.885-81.61-32.367-141.624a654 654 0 0 0 -43.813-71.216zm1.169-14.826c-1.685 2.825-5.685 4.271-11.889 4.3h-.105c-5.349 0-9.025-1.658-11.236-5.067-3.989-6.151-3.332-18.485 1.564-29.327a36.656 36.656 0 0 1 9.559-12.535 79.252 79.252 0 0 0 4.573 10.468c7.911 14.792 10.724 26.816 7.534 32.161zm.03-44.486a72.42 72.42 0 0 1 -2.81-8.613 5.849 5.849 0 0 0 -.286-1.169c-.022-.094-.042-.19-.064-.285l28.7-2.414c-8.136 7.351-19.393 10.961-25.54 12.481zm3.22-38.108c4.854-.3 21.621-.257 38.39 12.232l-45.97 3.867c.32-6.063 2.362-11.891 7.58-16.099zm-77.555-87.3c1.134-2.216 4.315-3.364 9.457-3.412h.133c4.112 0 8.632 1.8 13.436 5.355a25.8 25.8 0 0 0 25.747 2.784c2.363-1.046 5.646-2.056 7.858-.924 2.05 1.049 3.733 4.246 4.739 9 3.071 14.528 8.259 19.63 18.528 18.183a6.378 6.378 0 0 1 2.662-.1c.277.152 1.751 1.178 3.641 6.365 1.688 4.635 1.608 8.46-.244 11.694-2.949 5.145-10 8.283-14.872 9.792-11.124-15.144-29.192-24.1-54-26.691-2.174-.227-4.323-.355-6.457-.424-6.588-10.08-13.746-25.526-10.628-31.621zm139.297 388.088c-8.249-4.216-13.762-13.634-17.1-21.484a6 6 0 0 0 -11.5 2.786c.073 1.028 1.311 21.927-14.161 33.3-.847-13.4-7.732-28.69-9.527-32.474a6 6 0 0 0 -10.974.3c-8.26 20.186-33.938 25.979-48.343 27.64 3.568-13.149 1.873-31.943 1.058-38.882a6 6 0 0 0 -10.459-3.268c-16.587 18.81-33.772 22.6-43.6 22.982 4.469-14.429.1-34.314-.534-37.036a6 6 0 0 0 -10.645-2.231c-7.8 10.418-23.671 16.083-33.077 17.739 5.934-12.657 6.686-33.552 6.781-38.37a6 6 0 0 0 -10.566-4.01 44.626 44.626 0 0 1 -31.734 16.208c10.007-13.344 10.9-34.585 10.944-35.81a6 6 0 0 0 -9.8-4.847c-10.445 8.576-24.593 8.116-33.9 6.506a110.983 110.983 0 0 0 7.774-9.061c7.611-9.98 13.266-32.585 21.092-63.872 9.6-38.385 21.553-86.157 41.253-123.14 22.344-41.946 49.679-60.609 83.569-57.073 28.107 2.938 45.335 14.518 52.529 35.358-10.853 9.837-11.664 23.661-9.567 35.4a49.785 49.785 0 0 0 -17.1 20.114c-8.226 18.219-5.516 33.363-.695 40.8 2.847 4.391 8.294 9.524 18.3 10.4 12.675 17.344 93.976 132.13 79.982 202.025z" fill="url(#linear-gradient)"/><path d="m334.628 118.368a15.309 15.309 0 1 0 -15.31 15.325 15.334 15.334 0 0 0 15.31-15.325zm-15.31 3.325a3.325 3.325 0 1 1 3.31-3.325 3.321 3.321 0 0 1 -3.31 3.325z" fill="url(#linear-gradient-2)"/><path d="m237.83 149.056a6 6 0 0 0 -8 2.835c-13.41 28.135-22.815 60.63-28.724 82.624a6 6 0 1 0 11.59 3.113c5.785-21.54 14.98-53.326 27.966-80.574a6 6 0 0 0 -2.832-7.998z" fill="url(#linear-gradient-3)"/><path d="m252.27 124.667a6 6 0 0 0 -8.3 1.747c-1.005 1.541-2.016 3.143-3 4.764a6 6 0 1 0 10.246 6.247c.925-1.517 1.87-3.016 2.809-4.455a6 6 0 0 0 -1.755-8.303z" fill="url(#linear-gradient-4)"/></svg>