<svg id="Layer_1" height="48" viewBox="0 0 512 512" width="48" xmlns="http://www.w3.org/2000/svg" xmlns:xlink="http://www.w3.org/1999/xlink" data-name="Layer 1"><linearGradient id="linear-gradient" gradientUnits="userSpaceOnUse" x1="383" x2="383" y1="474" y2="94.564"><stop offset=".322" stop-color="#a163f5"/><stop offset=".466" stop-color="#b074ee"/><stop offset=".752" stop-color="#d8a1dd"/><stop offset=".898" stop-color="#efbad3"/></linearGradient><linearGradient id="linear-gradient-2" x1="398" x2="398" xlink:href="#linear-gradient" y1="474" y2="94.564"/><linearGradient id="linear-gradient-4" x1="393" x2="393" xlink:href="#linear-gradient" y1="474" y2="94.564"/><linearGradient id="linear-gradient-5" x1="183" x2="183" xlink:href="#linear-gradient" y1="474" y2="94.564"/><linearGradient id="linear-gradient-6" x1="256" x2="256" xlink:href="#linear-gradient" y1="474" y2="94.564"/><linearGradient id="linear-gradient-7" x1="62.364" x2="62.364" xlink:href="#linear-gradient" y1="474" y2="94.564"/><linearGradient id="linear-gradient-8" x1="95.091" x2="95.091" xlink:href="#linear-gradient" y1="474" y2="94.564"/><linearGradient id="linear-gradient-9" x1="127.819" x2="127.819" xlink:href="#linear-gradient" y1="474" y2="94.564"/><linearGradient id="linear-gradient-10" x1="44" x2="44" xlink:href="#linear-gradient" y1="474" y2="94.564"/><path d="m341 219h84a6 6 0 0 0 6-6v-23a6 6 0 0 0 -6-6h-84a6 6 0 0 0 -6 6v23a6 6 0 0 0 6 6zm35-23h43v11h-43zm-29 0h17v11h-17z" fill="url(#linear-gradient)"/><path d="m341 269h114a6 6 0 0 0 6-6v-23a6 6 0 0 0 -6-6h-114a6 6 0 0 0 -6 6v23a6 6 0 0 0 6 6zm35-23h73v11h-73zm-29 0h17v11h-17z" fill="url(#linear-gradient-2)"/><path d="m341 319h84a6 6 0 0 0 6-6v-23a6 6 0 0 0 -6-6h-84a6 6 0 0 0 -6 6v23a6 6 0 0 0 6 6zm35-23h43v11h-43zm-29 0h17v11h-17z" fill="url(#linear-gradient)"/><path d="m341 369h104a6 6 0 0 0 6-6v-23a6 6 0 0 0 -6-6h-104a6 6 0 0 0 -6 6v23a6 6 0 0 0 6 6zm35-23h63v11h-63zm-29 0h17v11h-17z" fill="url(#linear-gradient-4)"/><path d="m89.433 402h187.134a5.65 5.65 0 0 0 5.978-6.166l-14.7-174.047a5.972 5.972 0 0 0 -5.811-5.494l-43.034-.293v-14.617a42.216 42.216 0 0 0 -42.216-42.383h-.02c-23.381.011-42.764 19.041-42.764 42.419v14.581h-29.871a5.916 5.916 0 0 0 -5.979 5.4l-14.696 174.6a5.449 5.449 0 0 0 1.562 4.313 5.78 5.78 0 0 0 4.417 1.687zm167.567-170.769 12.8 151.724-12.8-10.341zm2.589 158.769h-17.929l9.3-6.973zm-14.589-16.757-13.641 10.231 13.641-138.948zm-99-171.826c0-16.764 14-30.409 30.8-30.417h.014a30.217 30.217 0 0 1 30.186 30.419v14.581h-61zm-36.354 26.583h24.354v19.247a6 6 0 0 0 12 0v-19.247h61v19.247a6 6 0 0 0 12 0v-19.247h15.188l-12.12 123h-122.811zm-11.4 135h122.644l-2.67 27h-122.261z" fill="url(#linear-gradient-5)"/><path d="m456 48h-400a46 46 0 0 0 -46 46v324a46 46 0 0 0 46 46h400a46 46 0 0 0 46-46v-324a46 46 0 0 0 -46-46zm-434 46.182a34.2 34.2 0 0 1 34-34.182h112v32.869a21.021 21.021 0 0 1 -21.091 21.131h-124.909zm468 323.636a34.2 34.2 0 0 1 -34 34.182h-400a34.2 34.2 0 0 1 -34-34.182v-291.818h468zm0-303.818h-317.509a32.54 32.54 0 0 0 7.509-21.132v-32.868h276a34.2 34.2 0 0 1 34 34.182z" fill="url(#linear-gradient-6)"/><path d="m62.364 78.979a8.182 8.182 0 1 0 8.182 8.182 8.191 8.191 0 0 0 -8.182-8.182z" fill="url(#linear-gradient-7)"/><path d="m95.091 78.979a8.182 8.182 0 1 0 8.182 8.182 8.191 8.191 0 0 0 -8.182-8.182z" fill="url(#linear-gradient-8)"/><path d="m127.819 78.979a8.182 8.182 0 1 0 8.181 8.182 8.191 8.191 0 0 0 -8.181-8.182z" fill="url(#linear-gradient-9)"/><g fill="url(#linear-gradient-10)"><path d="m44 158.833a6 6 0 0 0 6-6v-4.295a6 6 0 0 0 -12 0v4.295a6 6 0 0 0 6 6z"/><path d="m44 275.833a6 6 0 0 0 6-6v-96a6 6 0 0 0 -12 0v96a6 6 0 0 0 6 6z"/></g></svg>