<svg id="Layer_1" height="48" viewBox="0 0 512 512" width="48" xmlns="http://www.w3.org/2000/svg" xmlns:xlink="http://www.w3.org/1999/xlink" data-name="Layer 1"><linearGradient id="linear-gradient" gradientUnits="userSpaceOnUse" x1="252.345" x2="252.345" y1="427.499" y2="237.94"><stop offset=".322" stop-color="#a163f5"/><stop offset=".466" stop-color="#b074ee"/><stop offset=".752" stop-color="#d8a1dd"/><stop offset=".898" stop-color="#efbad3"/></linearGradient><linearGradient id="linear-gradient-2" x1="18.698" x2="18.698" xlink:href="#linear-gradient" y1="427.499" y2="237.94"/><linearGradient id="linear-gradient-3" x1="22.932" x2="22.932" xlink:href="#linear-gradient" y1="427.499" y2="237.94"/><linearGradient id="linear-gradient-4" x1="98.697" x2="98.697" xlink:href="#linear-gradient" y1="427.499" y2="237.94"/><linearGradient id="linear-gradient-5" x1="377.645" x2="377.645" xlink:href="#linear-gradient" y1="427.499" y2="237.94"/><linearGradient id="linear-gradient-6" x1="332.096" x2="332.096" xlink:href="#linear-gradient" y1="427.499" y2="237.94"/><linearGradient id="linear-gradient-7" x1="423.193" x2="423.193" xlink:href="#linear-gradient" y1="427.499" y2="237.94"/><linearGradient id="linear-gradient-9" x1="230.051" x2="230.051" xlink:href="#linear-gradient" y1="427.499" y2="237.94"/><linearGradient id="linear-gradient-10" x1="335.331" x2="335.331" xlink:href="#linear-gradient" y1="427.499" y2="237.94"/><linearGradient id="linear-gradient-11" x1="360.031" x2="360.031" xlink:href="#linear-gradient" y1="427.499" y2="237.94"/><linearGradient id="linear-gradient-12" x1="132.643" x2="132.643" xlink:href="#linear-gradient" y1="427.499" y2="237.94"/><path d="m182.542 119.771q-1.614 2.465-3.237 5.346a22 22 0 0 0 1.594 23.964 17.294 17.294 0 0 0 13.869 6.943 19.168 19.168 0 0 0 4.868-.642c12.139-3.187 21.779-8.988 28.558-16.908l-.533 1.431 9.372 3.487.244-.656c-.178 10.193 3.02 20.724 9.665 31.026a17.4 17.4 0 0 0 14.827 8.284 19.053 19.053 0 0 0 3.25-.283 22 22 0 0 0 17.355-16.6c.388-1.66.82-3.756 1.184-6.126 8.487-.693 17.233-4.119 25.7-10.193 18.739-13.449 28-26.155 27.528-37.764-.219-5.351-2.722-13.078-13.408-19.5-17.452-10.486-46.854-4.494-66.686 12.873a12.061 12.061 0 0 0 -2.339-3.477c4.217-5.807 10.248-11.57 18.309-17.508a5 5 0 1 0 -5.931-8.051 113.94 113.94 0 0 0 -13 11.021 76.749 76.749 0 0 0 -2.492-17.306 5 5 0 1 0 -9.677 2.519 65.444 65.444 0 0 1 1.686 25.04 12.081 12.081 0 0 0 -4.008.981c-2.906-26.2-20.551-50.471-40.5-54.518-12.217-2.477-19.281 1.534-23.055 5.333-8.187 8.244-9.932 23.87-5.189 46.443 2.136 10.181 6.265 18.602 12.046 24.841zm77.253-4.493c16.385-16.915 43.69-23.984 58.431-15.126 5.512 3.313 8.395 7.126 8.566 11.335.318 7.809-7.98 18.19-23.367 29.232-7.12 5.11-13.512 7.473-19.047 8.206.01-9.005-2.16-18.752-10.207-24.046-5.178-3.407-11.646-3.682-15.726-.664-4.895 3.618-7.269 8.6-6.684 14.021.866 8.034 8.215 15.4 13.188 17.633a37.461 37.461 0 0 0 8.582 2.681q-.366 2.061-.895 4.338a12.046 12.046 0 0 1 -9.326 9.022 7.419 7.419 0 0 1 -7.965-3.569c-16.329-25.314-4.221-44.111 4.455-53.063zm14.662 33.259a27.887 27.887 0 0 1 -5.415-1.791c-2.275-1.021-6.9-5.547-7.338-9.582-.137-1.26.046-2.957 2.652-4.886a2.165 2.165 0 0 1 .953-.165 6.426 6.426 0 0 1 3.771 1.405c1.508 1.128 5.286 4.964 5.377 15.019zm-38.1-23.388 5.745-17.077a2.1 2.1 0 0 1 2.747-1.287l.833.324h.007.006l.7.272a2.1 2.1 0 0 1 1.158 2.8l-7.291 16.477a2.1 2.1 0 0 1 -3.905-1.517zm-53.581-69.616c2.969-2.99 7.669-3.858 13.973-2.578 16.855 3.418 32.224 27.066 32.891 50.607.353 12.459-3.406 34.5-32.543 42.148a7.424 7.424 0 0 1 -8.285-2.744 12.048 12.048 0 0 1 -.788-12.952q1.146-2.043 2.266-3.807a37.491 37.491 0 0 0 8.144 3.819c5.325 1.761 16.376 1.155 22.426-4.548 3.916-3.693 5.218-8.927 3.666-14.742-1.359-5.092-6.617-9.192-12.788-9.97-4.947-.62-13.53.406-23.03 10.922-3.554-4.272-6.641-10.3-8.43-18.815-3.895-18.534-3.007-31.795 2.498-37.34zm13.555 62.642c6.944-7.549 12.3-7.718 14.156-7.487 2.867.361 4.23 2.077 4.377 2.626.765 2.868-.007 4.08-.864 4.887-2.871 2.706-9.969 3.143-12.426 2.331a27.753 27.753 0 0 1 -5.243-2.357z" fill="url(#linear-gradient)"/><path d="m16.935 151.146a4.988 4.988 0 0 0 5.8-4.041c.426-2.376.875-4.6 1.684-7.734a5 5 0 1 0 -9.681-2.5c-.889 3.438-1.381 5.874-1.846 8.475a5 5 0 0 0 4.043 5.8z" fill="url(#linear-gradient-2)"/><path d="m21.028 167.094a5 5 0 0 0 -10-.194c-.463 24.043 4.477 43.939 14.683 59.133a5 5 0 1 0 8.3-5.576c-9.036-13.457-13.405-31.412-12.983-53.363z" fill="url(#linear-gradient-3)"/><path d="m98.7 102.24a17.073 17.073 0 1 0 17.073 17.072 17.091 17.091 0 0 0 -17.073-17.072zm0 24.145a7.073 7.073 0 1 1 7.073-7.073 7.08 7.08 0 0 1 -7.073 7.073z" fill="url(#linear-gradient-4)"/><path d="m377.645 194.191a26.02 26.02 0 1 0 -26.02-26.019 26.049 26.049 0 0 0 26.02 26.019zm0-42.039a16.02 16.02 0 1 1 -16.02 16.02 16.039 16.039 0 0 1 16.02-16.02z" fill="url(#linear-gradient-5)"/><path d="m306.077 206.247a26.02 26.02 0 1 0 26.02-26.019 26.049 26.049 0 0 0 -26.02 26.019zm42.039 0a16.02 16.02 0 1 1 -16.016-16.019 16.038 16.038 0 0 1 16.016 16.019z" fill="url(#linear-gradient-6)"/><path d="m423.193 232.267a26.02 26.02 0 1 0 -26.019-26.02 26.049 26.049 0 0 0 26.019 26.02zm0-42.039a16.02 16.02 0 1 1 -16.019 16.019 16.038 16.038 0 0 1 16.019-16.019z" fill="url(#linear-gradient-7)"/><path d="m377.377 208.985c-11.209 0-21.041 10.577-21.041 22.633v2.363c-.639.118-.87.142-.907.146-11.248 1.1-19.411 9.457-19.411 19.874v1.091a17.908 17.908 0 0 0 17.882 17.887h47.482a17.907 17.907 0 0 0 17.886-17.887v-1.092c0-10.514-8.181-18.873-19.453-19.878-.083-.007-.44-.045-1.4-.212v-2.293c.004-12.055-9.829-22.632-21.038-22.632zm21.555 35.1c5.138.458 10.34 4.012 10.34 9.917v1.091a7.9 7.9 0 0 1 -7.886 7.887h-47.486a7.9 7.9 0 0 1 -7.886-7.887v-1.093c0-6.12 5.382-9.433 10.381-9.921a37.1 37.1 0 0 0 3.964-.71 7.586 7.586 0 0 0 5.973-7.383v-4.369c0-6.493 5.366-12.633 11.041-12.633s11.042 6.14 11.042 12.633v4.329a7.567 7.567 0 0 0 6.106 7.412c2.821.549 3.868.677 4.411.726z" fill="url(#linear-gradient-5)"/><path d="m229.937 305.348c-18.464 0-28.634 11.056-28.634 31.133v63.4c0 20.076 10.17 31.133 28.634 31.133 18.342 0 28.861-11.348 28.861-31.133v-63.4c.002-19.781-10.519-31.133-28.861-31.133zm-18.637 31.133c0-14.616 5.747-21.133 18.634-21.133 8.011 0 13.354 2.6 16.249 8.048a41.049 41.049 0 0 0 -.6 5.913v24.979a20.03 20.03 0 0 1 -9.88 17.562c-7.144 4.031-13.765 1.955-24.4-4.221zm18.634 84.536c-10.282 0-16.006-4.166-17.9-13.267a72.3 72.3 0 0 0 13.859 1.824 76.248 76.248 0 0 0 22.523-3.994c-1.486 10.486-7.45 15.437-18.479 15.437zm18.861-26.2c-7.207 2.857-16.2 4.761-22.908 4.761a71.243 71.243 0 0 1 -14.587-2.238v-18.3c5.579 2.858 11.184 4.894 16.955 4.894a24.707 24.707 0 0 0 12.362-3.379 28.749 28.749 0 0 0 8.178-6.95z" fill="url(#linear-gradient-9)"/><path d="m493.9 289.47h-12.125a20 20 0 0 0 -18.9-13.574h-7.183c-16.9-.105-36.326 8.673-49.376 21.837a44.713 44.713 0 0 0 -5.181-5.293c-10.019-8.625-23.885-13-41.213-13-10.269 0-19.3 1.553-27.043 4.608-9.857-5.419-22.618-8.976-32.572-8.976-11.683 0-26.127 5.915-36.371 12.282-9.114-5.248-20.5-7.914-33.994-7.914-17.312 0-31.143 4.377-41.11 13.009-11.324 9.808-17.066 24.622-17.066 44.031v63.4c0 19.409 5.742 34.222 17.066 44.03 9.967 8.632 23.8 13.009 41.11 13.009 17.328 0 31.194-4.374 41.213-13 11.407-9.821 17.19-24.638 17.19-44.04v-63.4a77.578 77.578 0 0 0 -1.987-18.053 26.876 26.876 0 0 1 14.179-4.007 27.334 27.334 0 0 1 4.173.335 74.4 74.4 0 0 0 -2.964 21.725v63.4c0 19.409 5.742 34.222 17.066 44.03 9.967 8.632 23.8 13.009 41.11 13.009 17.328 0 31.194-4.374 41.213-13 11.407-9.821 17.19-24.638 17.19-44.04v-17.06c4.986-7.619 10.511-18.365 10.511-28.584v-15.753a22.631 22.631 0 0 1 22.857-22.629h11.177a20 20 0 0 0 19.636-16.382h11.4a5 5 0 1 0 0-10zm-215.56 110.414c0 16.358-4.614 28.626-13.715 36.461-8.152 7.019-19.823 10.578-34.688 10.578-14.837 0-26.466-3.556-34.563-10.569-9.033-7.822-13.613-20.092-13.613-36.47v-63.4c0-16.377 4.58-28.649 13.613-36.471 8.1-7.013 19.726-10.569 34.563-10.569 14.865 0 26.536 3.559 34.688 10.578 9.1 7.835 13.715 20.1 13.715 36.462zm22.192-95.463a36.838 36.838 0 0 0 -17.411 4.316 45.679 45.679 0 0 0 -10.475-14.925c9.493-5.283 20.174-8.739 27.656-8.739 6.288 0 14.469 1.913 21.693 4.875-1.1.793-2.169 1.62-3.188 2.5a44.857 44.857 0 0 0 -10.22 12.848 37.26 37.26 0 0 0 -8.055-.875zm107.788 95.463c0 16.358-4.614 28.626-13.715 36.461-8.152 7.019-19.823 10.578-34.688 10.578-14.837 0-26.466-3.556-34.563-10.569-9.033-7.822-13.613-20.092-13.613-36.47v-63.4c0-16.377 4.58-28.649 13.613-36.471 8.1-7.013 19.726-10.569 34.563-10.569 14.865 0 26.536 3.559 34.688 10.578 9.1 7.835 13.715 20.1 13.715 36.462zm54.55-94.032h-11.416a32.629 32.629 0 0 0 -32.623 32.63v15.753a23.29 23.29 0 0 1 -.511 4.612v-22.366c0-11.782-2.146-21.861-6.375-30.17 9.373-10.237 23.169-17.689 36.243-19.792a6.771 6.771 0 1 0 2.677-.354 44.1 44.1 0 0 1 4.569-.269h7.436a9.978 9.978 0 0 1 0 19.956z" fill="url(#linear-gradient-10)"/><path d="m359.917 305.348c-18.464 0-28.633 11.056-28.633 31.133v63.4c0 20.076 10.169 31.133 28.633 31.133 18.342 0 28.861-11.348 28.861-31.133v-63.4c0-19.781-10.519-31.133-28.861-31.133zm0 115.669c-12.837 0-18.585-6.474-18.629-20.971a59.26 59.26 0 0 0 34.156 11.37c.484 0 .969-.017 1.454-.029-2.67 6.513-8.233 9.63-16.981 9.63zm18.861-21.133c0 .487-.024.943-.038 1.412-1.1.075-2.2.12-3.3.12-12.331 0-24.956-5.359-34.159-14.4v-50.535c0-6.425 1.113-11.283 3.453-14.712a49.288 49.288 0 0 1 .485 6.86v20.508a30.255 30.255 0 0 0 30.221 30.221 27.278 27.278 0 0 0 3.335-.224zm0-30.855a19.94 19.94 0 0 1 -23.556-19.892v-20.508a59.007 59.007 0 0 0 -1.377-12.667 27.94 27.94 0 0 1 6.072-.614c12.868 0 18.861 6.715 18.861 21.133z" fill="url(#linear-gradient-11)"/><path d="m154.267 419.653h-56.967l63.129-114.1c2.7-4.6 4.065-9.03 4.065-13.157 0-7.749-5.571-12.954-13.863-12.954h-26.586v-27.167a156.034 156.034 0 0 0 27.617-1.894c12.321 18.1 32 27.933 55 27.932a88.771 88.771 0 0 0 18.28-1.967 5.165 5.165 0 0 0 3.714-2.925 5.006 5.006 0 0 0 -1.793-6.15l-63.727-42.871c3.929-26.322-4.9-52.019-25.081-73.079a39.9 39.9 0 0 0 3.882-8.825c5.862-19.287 4.213-35.322-4.9-47.662-11.5-15.571-30.376-19.133-36.082-19.152h-.255c-23.743 0-42.646 11.555-54.671 33.428a104 104 0 0 0 -9.474 24.7 5.009 5.009 0 0 0 9.733 2.374 94.1 94.1 0 0 1 8.5-22.255c10.312-18.746 25.752-28.247 45.912-28.247h.222a33.945 33.945 0 0 1 11.114 2.584 38.8 38.8 0 1 0 -8.43 77.024l-.227.91a5.214 5.214 0 0 0 .6 4.107 5 5 0 0 0 5.962 1.975c9.3-3.487 16.5-7.77 21.862-13.032 17.11 18.371 24.676 40.438 21.558 62.948-33.168 3.057-54.3-11.373-64.55-44.022a5 5 0 0 0 -6.716-3.11 5.121 5.121 0 0 0 -2.775 6.262c10.747 34.078 32.751 51.279 65.512 51.277a105.345 105.345 0 0 0 11.581-.678l53.905 36.263a65.262 65.262 0 0 1 -22.894-2.822 51.666 51.666 0 0 1 -29.094-23.1 5 5 0 0 0 -5.307-2.294c-.527.11-53.2 10.832-85.113-15.57-10.771-8.91-18.058-21.143-21.805-36.537a5.009 5.009 0 1 0 -9.743 2.331c4.245 17.542 12.673 31.586 25.214 41.945a78.95 78.95 0 0 0 19.875 11.857v35.44h-17.174c-8.3 0-14.09 7.383-14.09 17.954s5.794 17.953 14.09 17.953h49.007l-63.34 114.31a26.279 26.279 0 0 0 -3.844 12.721c0 8.008 5.442 13.182 13.863 13.182h94.308c8.962 0 14.317-9.128 14.317-17.954s-5.359-17.953-14.321-17.953zm-38.727-260.873 3.675-14.7 10.791 1.2c-2.376 4.32-6.551 9.134-14.466 13.5zm18.873-27.58c-.262 1.442-.567 2.906-.94 4.406l-17.5-1.945a5.008 5.008 0 0 0 -5.4 3.757l-4.482 17.928c-.108 0-.215.011-.323.011a28.8 28.8 0 1 1 28.8-28.8c-.004 1.828-.053 3.308-.155 4.643zm-26.061 119.89q2.88.387 5.693.643v27.711h-5.693zm-16.9-3.547q3.452 1.013 6.9 1.774v30.127h-6.9zm62.816 198.02h-94.309c-3.579 0-3.863-1.379-3.863-3.182a16.28 16.28 0 0 1 2.469-7.652c.03-.05.059-.1.086-.15l67.493-121.8a5 5 0 0 0 -4.373-7.423h-57.494c-2.656 0-4.09-4.1-4.09-7.953 0-.08.047-7.954 4.09-7.954h86.354c3.863 0 3.863 1.921 3.863 2.954a16.914 16.914 0 0 1 -2.719 8.145c-.022.038-.044.076-.065.114l-67.265 121.57a5 5 0 0 0 4.375 7.421h65.447c2.431 0 4.317 4.276 4.317 7.953s-1.884 7.954-4.317 7.954z" fill="url(#linear-gradient-12)"/></svg>