<svg width="1039" height="146" viewBox="0 0 1039 146" fill="none" xmlns="http://www.w3.org/2000/svg">
<g filter="url(#filter0_d)">
<path d="M0.53125 130.701H15.0277H19.0545L122.946 25.682L214.918 116.043H176.744L118.436 59.346L107.966 68.366L170.14 130.701H248.099L122.946 6.03125L0.53125 130.701Z" fill="white"/>
</g>
<g filter="url(#filter1_d)">
<path d="M247.246 8.24609L184 67.6152L194.062 77.6813L247.246 26.3436L335.148 113.876H291.013L240.044 61.6152L230.072 71.5873L291.013 130.866H372.267L247.246 8.24609Z" fill="white"/>
</g>
<g filter="url(#filter2_d)">
<path d="M370.605 8.24609L307 68.5873L317.42 77.6813L370.605 26.3436L458.507 113.876H414.371L363.403 61.6152L353.431 71.5873L414.371 130.866H495.625L370.605 8.24609Z" fill="white"/>
</g>
<rect x="158.521" y="94.6523" width="21.771" height="12.0801" transform="rotate(-45.8933 158.521 94.6523)" fill="white"/>
<rect x="278.362" y="96.7344" width="25.1516" height="13.0801" transform="rotate(-43.9877 278.362 96.7344)" fill="white"/>
<g filter="url(#filter3_d)">
<path d="M530.92 52.4H542.44V116H530.92V52.4ZM536.68 40.16C534.44 40.16 532.56 39.44 531.04 38C529.6 36.56 528.88 34.8 528.88 32.72C528.88 30.64 529.6 28.88 531.04 27.44C532.56 25.92 534.44 25.16 536.68 25.16C538.92 25.16 540.76 25.88 542.2 27.32C543.72 28.68 544.48 30.4 544.48 32.48C544.48 34.64 543.72 36.48 542.2 38C540.76 39.44 538.92 40.16 536.68 40.16ZM598.396 51.8C606.476 51.8 612.876 54.16 617.596 58.88C622.396 63.52 624.796 70.36 624.796 79.4V116H613.276V80.72C613.276 74.56 611.796 69.92 608.836 66.8C605.876 63.68 601.636 62.12 596.116 62.12C589.876 62.12 584.956 63.96 581.356 67.64C577.756 71.24 575.956 76.44 575.956 83.24V116H564.436V52.4H575.476V62C577.796 58.72 580.916 56.2 584.836 54.44C588.836 52.68 593.356 51.8 598.396 51.8ZM701.223 52.4L673.383 116H661.623L633.783 52.4H645.783L667.623 103.4L689.943 52.4H701.223ZM767.697 84.56C767.697 85.44 767.617 86.6 767.457 88.04H715.857C716.577 93.64 719.017 98.16 723.177 101.6C727.417 104.96 732.657 106.64 738.897 106.64C746.497 106.64 752.617 104.08 757.257 98.96L763.617 106.4C760.737 109.76 757.137 112.32 752.817 114.08C748.577 115.84 743.817 116.72 738.537 116.72C731.817 116.72 725.857 115.36 720.657 112.64C715.457 109.84 711.417 105.96 708.537 101C705.737 96.04 704.337 90.44 704.337 84.2C704.337 78.04 705.697 72.48 708.417 67.52C711.217 62.56 715.017 58.72 719.817 56C724.697 53.2 730.177 51.8 736.257 51.8C742.337 51.8 747.737 53.2 752.457 56C757.257 58.72 760.977 62.56 763.617 67.52C766.337 72.48 767.697 78.16 767.697 84.56ZM736.257 61.52C730.737 61.52 726.097 63.2 722.337 66.56C718.657 69.92 716.497 74.32 715.857 79.76H756.657C756.017 74.4 753.817 70.04 750.057 66.68C746.377 63.24 741.777 61.52 736.257 61.52ZM801.933 116.72C796.733 116.72 791.733 116.04 786.933 114.68C782.133 113.24 778.373 111.44 775.653 109.28L780.453 100.16C783.253 102.16 786.653 103.76 790.653 104.96C794.653 106.16 798.693 106.76 802.773 106.76C812.853 106.76 817.893 103.88 817.893 98.12C817.893 96.2 817.213 94.68 815.853 93.56C814.493 92.44 812.773 91.64 810.693 91.16C808.693 90.6 805.813 90 802.053 89.36C796.933 88.56 792.733 87.64 789.453 86.6C786.253 85.56 783.493 83.8 781.173 81.32C778.853 78.84 777.693 75.36 777.693 70.88C777.693 65.12 780.093 60.52 784.893 57.08C789.693 53.56 796.133 51.8 804.213 51.8C808.453 51.8 812.693 52.32 816.933 53.36C821.173 54.4 824.653 55.8 827.373 57.56L822.453 66.68C817.253 63.32 811.133 61.64 804.093 61.64C799.213 61.64 795.493 62.44 792.933 64.04C790.373 65.64 789.093 67.76 789.093 70.4C789.093 72.48 789.813 74.12 791.253 75.32C792.693 76.52 794.453 77.4 796.533 77.96C798.693 78.52 801.693 79.16 805.533 79.88C810.653 80.76 814.773 81.72 817.893 82.76C821.093 83.72 823.813 85.4 826.053 87.8C828.293 90.2 829.413 93.56 829.413 97.88C829.413 103.64 826.933 108.24 821.973 111.68C817.093 115.04 810.413 116.72 801.933 116.72ZM879.571 112.28C877.891 113.72 875.811 114.84 873.331 115.64C870.851 116.36 868.291 116.72 865.651 116.72C859.251 116.72 854.291 115 850.771 111.56C847.251 108.12 845.491 103.2 845.491 96.8V61.88H834.691V52.4H845.491V38.48H857.011V52.4H875.251V61.88H857.011V96.32C857.011 99.76 857.851 102.4 859.531 104.24C861.291 106.08 863.771 107 866.971 107C870.491 107 873.491 106 875.971 104L879.571 112.28ZM918.629 116.72C912.309 116.72 906.629 115.32 901.589 112.52C896.549 109.72 892.589 105.88 889.709 101C886.909 96.04 885.509 90.44 885.509 84.2C885.509 77.96 886.909 72.4 889.709 67.52C892.589 62.56 896.549 58.72 901.589 56C906.629 53.2 912.309 51.8 918.629 51.8C924.949 51.8 930.589 53.2 935.549 56C940.589 58.72 944.509 62.56 947.309 67.52C950.189 72.4 951.629 77.96 951.629 84.2C951.629 90.44 950.189 96.04 947.309 101C944.509 105.88 940.589 109.72 935.549 112.52C930.589 115.32 924.949 116.72 918.629 116.72ZM918.629 106.64C922.709 106.64 926.349 105.72 929.549 103.88C932.829 101.96 935.389 99.32 937.229 95.96C939.069 92.52 939.989 88.6 939.989 84.2C939.989 79.8 939.069 75.92 937.229 72.56C935.389 69.12 932.829 66.48 929.549 64.64C926.349 62.8 922.709 61.88 918.629 61.88C914.549 61.88 910.869 62.8 907.589 64.64C904.389 66.48 901.829 69.12 899.909 72.56C898.069 75.92 897.149 79.8 897.149 84.2C897.149 88.6 898.069 92.52 899.909 95.96C901.829 99.32 904.389 101.96 907.589 103.88C910.869 105.72 914.549 106.64 918.629 106.64ZM1001.52 51.8C1009.6 51.8 1016 54.16 1020.72 58.88C1025.52 63.52 1027.92 70.36 1027.92 79.4V116H1016.4V80.72C1016.4 74.56 1014.92 69.92 1011.96 66.8C1009 63.68 1004.76 62.12 999.241 62.12C993.001 62.12 988.081 63.96 984.481 67.64C980.881 71.24 979.081 76.44 979.081 83.24V116H967.561V52.4H978.601V62C980.921 58.72 984.041 56.2 987.961 54.44C991.961 52.68 996.481 51.8 1001.52 51.8Z" fill="white"/>
</g>
<defs>
<filter id="filter0_d" x="0.53125" y="6.03125" width="259.567" height="132.67" filterUnits="userSpaceOnUse" color-interpolation-filters="sRGB">
<feFlood flood-opacity="0" result="BackgroundImageFix"/>
<feColorMatrix in="SourceAlpha" type="matrix" values="0 0 0 0 0 0 0 0 0 0 0 0 0 0 0 0 0 0 127 0" result="hardAlpha"/>
<feOffset dx="8" dy="4"/>
<feGaussianBlur stdDeviation="2"/>
<feComposite in2="hardAlpha" operator="out"/>
<feColorMatrix type="matrix" values="0 0 0 0 0.160115 0 0 0 0 0.144479 0 0 0 0 0.608333 0 0 0 0.6 0"/>
<feBlend mode="normal" in2="BackgroundImageFix" result="effect1_dropShadow"/>
<feBlend mode="normal" in="SourceGraphic" in2="effect1_dropShadow" result="shape"/>
</filter>
<filter id="filter1_d" x="184" y="8.24609" width="200.267" height="130.62" filterUnits="userSpaceOnUse" color-interpolation-filters="sRGB">
<feFlood flood-opacity="0" result="BackgroundImageFix"/>
<feColorMatrix in="SourceAlpha" type="matrix" values="0 0 0 0 0 0 0 0 0 0 0 0 0 0 0 0 0 0 127 0" result="hardAlpha"/>
<feOffset dx="8" dy="4"/>
<feGaussianBlur stdDeviation="2"/>
<feComposite in2="hardAlpha" operator="out"/>
<feColorMatrix type="matrix" values="0 0 0 0 0.160784 0 0 0 0 0.145098 0 0 0 0 0.607843 0 0 0 0.6 0"/>
<feBlend mode="normal" in2="BackgroundImageFix" result="effect1_dropShadow"/>
<feBlend mode="normal" in="SourceGraphic" in2="effect1_dropShadow" result="shape"/>
</filter>
<filter id="filter2_d" x="307" y="8.24609" width="200.625" height="130.62" filterUnits="userSpaceOnUse" color-interpolation-filters="sRGB">
<feFlood flood-opacity="0" result="BackgroundImageFix"/>
<feColorMatrix in="SourceAlpha" type="matrix" values="0 0 0 0 0 0 0 0 0 0 0 0 0 0 0 0 0 0 127 0" result="hardAlpha"/>
<feOffset dx="8" dy="4"/>
<feGaussianBlur stdDeviation="2"/>
<feComposite in2="hardAlpha" operator="out"/>
<feColorMatrix type="matrix" values="0 0 0 0 0.160784 0 0 0 0 0.145098 0 0 0 0 0.607843 0 0 0 0.6 0"/>
<feBlend mode="normal" in2="BackgroundImageFix" result="effect1_dropShadow"/>
<feBlend mode="normal" in="SourceGraphic" in2="effect1_dropShadow" result="shape"/>
</filter>
<filter id="filter3_d" x="526.88" y="25.1602" width="507.041" height="99.56" filterUnits="userSpaceOnUse" color-interpolation-filters="sRGB">
<feFlood flood-opacity="0" result="BackgroundImageFix"/>
<feColorMatrix in="SourceAlpha" type="matrix" values="0 0 0 0 0 0 0 0 0 0 0 0 0 0 0 0 0 0 127 0" result="hardAlpha"/>
<feOffset dx="2" dy="4"/>
<feGaussianBlur stdDeviation="2"/>
<feComposite in2="hardAlpha" operator="out"/>
<feColorMatrix type="matrix" values="0 0 0 0 0.160784 0 0 0 0 0.145098 0 0 0 0 0.607843 0 0 0 0.8 0"/>
<feBlend mode="normal" in2="BackgroundImageFix" result="effect1_dropShadow"/>
<feBlend mode="normal" in="SourceGraphic" in2="effect1_dropShadow" result="shape"/>
</filter>
</defs>
</svg>
