<svg width="1039" height="147" viewBox="0 0 1039 147" fill="none" xmlns="http://www.w3.org/2000/svg">
<g filter="url(#filter0_d)">
<path d="M0.53125 131.029H15.0277H19.0545L122.946 26.0101L214.918 116.371H176.744L118.436 59.6741L107.966 68.6941L170.14 131.029H248.099L122.946 6.35938L0.53125 131.029Z" fill="#1D1A73"/>
</g>
<g filter="url(#filter1_d)">
<path d="M247.246 8.57422L184 67.9433L194.062 78.0094L247.246 26.6717L335.148 114.204H291.013L240.044 61.9433L230.072 71.9154L291.013 131.194H372.267L247.246 8.57422Z" fill="#1D1A73"/>
</g>
<g filter="url(#filter2_d)">
<path d="M370.605 8.57422L307 68.9154L317.42 78.0094L370.605 26.6717L458.507 114.204H414.371L363.403 61.9433L353.431 71.9154L414.371 131.194H495.625L370.605 8.57422Z" fill="#1D1A73"/>
</g>
<rect x="158.521" y="94.9805" width="21.771" height="12.0801" transform="rotate(-45.8933 158.521 94.9805)" fill="#1D1A73"/>
<rect x="278.362" y="97.0625" width="25.1516" height="13.0801" transform="rotate(-43.9877 278.362 97.0625)" fill="#1D1A73"/>
<g filter="url(#filter3_d)">
<path d="M530.92 52.7281H542.44V116.328H530.92V52.7281ZM536.68 40.4881C534.44 40.4881 532.56 39.7681 531.04 38.3281C529.6 36.8881 528.88 35.1281 528.88 33.0481C528.88 30.9681 529.6 29.2081 531.04 27.7681C532.56 26.2481 534.44 25.4881 536.68 25.4881C538.92 25.4881 540.76 26.2081 542.2 27.6481C543.72 29.0081 544.48 30.7281 544.48 32.8081C544.48 34.9681 543.72 36.8081 542.2 38.3281C540.76 39.7681 538.92 40.4881 536.68 40.4881ZM598.396 52.1281C606.476 52.1281 612.876 54.4881 617.596 59.2081C622.396 63.8481 624.796 70.6881 624.796 79.7281V116.328H613.276V81.0481C613.276 74.8881 611.796 70.2481 608.836 67.1281C605.876 64.0081 601.636 62.4481 596.116 62.4481C589.876 62.4481 584.956 64.2881 581.356 67.9681C577.756 71.5681 575.956 76.7681 575.956 83.5681V116.328H564.436V52.7281H575.476V62.3281C577.796 59.0481 580.916 56.5281 584.836 54.7681C588.836 53.0081 593.356 52.1281 598.396 52.1281ZM701.223 52.7281L673.383 116.328H661.623L633.783 52.7281H645.783L667.623 103.728L689.943 52.7281H701.223ZM767.697 84.8881C767.697 85.7681 767.617 86.9281 767.457 88.3681H715.857C716.577 93.9681 719.017 98.4881 723.177 101.928C727.417 105.288 732.657 106.968 738.897 106.968C746.497 106.968 752.617 104.408 757.257 99.2881L763.617 106.728C760.737 110.088 757.137 112.648 752.817 114.408C748.577 116.168 743.817 117.048 738.537 117.048C731.817 117.048 725.857 115.688 720.657 112.968C715.457 110.168 711.417 106.288 708.537 101.328C705.737 96.3681 704.337 90.7681 704.337 84.5281C704.337 78.3681 705.697 72.8081 708.417 67.8481C711.217 62.8881 715.017 59.0481 719.817 56.3281C724.697 53.5281 730.177 52.1281 736.257 52.1281C742.337 52.1281 747.737 53.5281 752.457 56.3281C757.257 59.0481 760.977 62.8881 763.617 67.8481C766.337 72.8081 767.697 78.4881 767.697 84.8881ZM736.257 61.8481C730.737 61.8481 726.097 63.5281 722.337 66.8881C718.657 70.2481 716.497 74.6481 715.857 80.0881H756.657C756.017 74.7281 753.817 70.3681 750.057 67.0081C746.377 63.5681 741.777 61.8481 736.257 61.8481ZM801.933 117.048C796.733 117.048 791.733 116.368 786.933 115.008C782.133 113.568 778.373 111.768 775.653 109.608L780.453 100.488C783.253 102.488 786.653 104.088 790.653 105.288C794.653 106.488 798.693 107.088 802.773 107.088C812.853 107.088 817.893 104.208 817.893 98.4481C817.893 96.5281 817.213 95.0081 815.853 93.8881C814.493 92.7681 812.773 91.9681 810.693 91.4881C808.693 90.9281 805.813 90.3281 802.053 89.6881C796.933 88.8881 792.733 87.9681 789.453 86.9281C786.253 85.8881 783.493 84.1281 781.173 81.6481C778.853 79.1681 777.693 75.6881 777.693 71.2081C777.693 65.4481 780.093 60.8481 784.893 57.4081C789.693 53.8881 796.133 52.1281 804.213 52.1281C808.453 52.1281 812.693 52.6481 816.933 53.6881C821.173 54.7281 824.653 56.1281 827.373 57.8881L822.453 67.0081C817.253 63.6481 811.133 61.9681 804.093 61.9681C799.213 61.9681 795.493 62.7681 792.933 64.3681C790.373 65.9681 789.093 68.0881 789.093 70.7281C789.093 72.8081 789.813 74.4481 791.253 75.6481C792.693 76.8481 794.453 77.7281 796.533 78.2881C798.693 78.8481 801.693 79.4881 805.533 80.2081C810.653 81.0881 814.773 82.0481 817.893 83.0881C821.093 84.0481 823.813 85.7281 826.053 88.1281C828.293 90.5281 829.413 93.8881 829.413 98.2081C829.413 103.968 826.933 108.568 821.973 112.008C817.093 115.368 810.413 117.048 801.933 117.048ZM879.571 112.608C877.891 114.048 875.811 115.168 873.331 115.968C870.851 116.688 868.291 117.048 865.651 117.048C859.251 117.048 854.291 115.328 850.771 111.888C847.251 108.448 845.491 103.528 845.491 97.1281V62.2081H834.691V52.7281H845.491V38.8081H857.011V52.7281H875.251V62.2081H857.011V96.6481C857.011 100.088 857.851 102.728 859.531 104.568C861.291 106.408 863.771 107.328 866.971 107.328C870.491 107.328 873.491 106.328 875.971 104.328L879.571 112.608ZM918.629 117.048C912.309 117.048 906.629 115.648 901.589 112.848C896.549 110.048 892.589 106.208 889.709 101.328C886.909 96.3681 885.509 90.7681 885.509 84.5281C885.509 78.2881 886.909 72.7281 889.709 67.8481C892.589 62.8881 896.549 59.0481 901.589 56.3281C906.629 53.5281 912.309 52.1281 918.629 52.1281C924.949 52.1281 930.589 53.5281 935.549 56.3281C940.589 59.0481 944.509 62.8881 947.309 67.8481C950.189 72.7281 951.629 78.2881 951.629 84.5281C951.629 90.7681 950.189 96.3681 947.309 101.328C944.509 106.208 940.589 110.048 935.549 112.848C930.589 115.648 924.949 117.048 918.629 117.048ZM918.629 106.968C922.709 106.968 926.349 106.048 929.549 104.208C932.829 102.288 935.389 99.6481 937.229 96.2881C939.069 92.8481 939.989 88.9281 939.989 84.5281C939.989 80.1281 939.069 76.2481 937.229 72.8881C935.389 69.4481 932.829 66.8081 929.549 64.9681C926.349 63.1281 922.709 62.2081 918.629 62.2081C914.549 62.2081 910.869 63.1281 907.589 64.9681C904.389 66.8081 901.829 69.4481 899.909 72.8881C898.069 76.2481 897.149 80.1281 897.149 84.5281C897.149 88.9281 898.069 92.8481 899.909 96.2881C901.829 99.6481 904.389 102.288 907.589 104.208C910.869 106.048 914.549 106.968 918.629 106.968ZM1001.52 52.1281C1009.6 52.1281 1016 54.4881 1020.72 59.2081C1025.52 63.8481 1027.92 70.6881 1027.92 79.7281V116.328H1016.4V81.0481C1016.4 74.8881 1014.92 70.2481 1011.96 67.1281C1009 64.0081 1004.76 62.4481 999.241 62.4481C993.001 62.4481 988.081 64.2881 984.481 67.9681C980.881 71.5681 979.081 76.7681 979.081 83.5681V116.328H967.561V52.7281H978.601V62.3281C980.921 59.0481 984.041 56.5281 987.961 54.7681C991.961 53.0081 996.481 52.1281 1001.52 52.1281Z" fill="#1D1A73"/>
</g>
<defs>
<filter id="filter0_d" x="0.53125" y="6.35938" width="255.567" height="132.67" filterUnits="userSpaceOnUse" color-interpolation-filters="sRGB">
<feFlood flood-opacity="0" result="BackgroundImageFix"/>
<feColorMatrix in="SourceAlpha" type="matrix" values="0 0 0 0 0 0 0 0 0 0 0 0 0 0 0 0 0 0 127 0" result="hardAlpha"/>
<feOffset dx="4" dy="4"/>
<feGaussianBlur stdDeviation="2"/>
<feComposite in2="hardAlpha" operator="out"/>
<feColorMatrix type="matrix" values="0 0 0 0 0.577786 0 0 0 0 0.575122 0 0 0 0 0.654167 0 0 0 1 0"/>
<feBlend mode="normal" in2="BackgroundImageFix" result="effect1_dropShadow"/>
<feBlend mode="normal" in="SourceGraphic" in2="effect1_dropShadow" result="shape"/>
</filter>
<filter id="filter1_d" x="184" y="8.57422" width="196.267" height="130.62" filterUnits="userSpaceOnUse" color-interpolation-filters="sRGB">
<feFlood flood-opacity="0" result="BackgroundImageFix"/>
<feColorMatrix in="SourceAlpha" type="matrix" values="0 0 0 0 0 0 0 0 0 0 0 0 0 0 0 0 0 0 127 0" result="hardAlpha"/>
<feOffset dx="4" dy="4"/>
<feGaussianBlur stdDeviation="2"/>
<feComposite in2="hardAlpha" operator="out"/>
<feColorMatrix type="matrix" values="0 0 0 0 0.576471 0 0 0 0 0.576471 0 0 0 0 0.654902 0 0 0 1 0"/>
<feBlend mode="normal" in2="BackgroundImageFix" result="effect1_dropShadow"/>
<feBlend mode="normal" in="SourceGraphic" in2="effect1_dropShadow" result="shape"/>
</filter>
<filter id="filter2_d" x="307" y="8.57422" width="196.625" height="130.62" filterUnits="userSpaceOnUse" color-interpolation-filters="sRGB">
<feFlood flood-opacity="0" result="BackgroundImageFix"/>
<feColorMatrix in="SourceAlpha" type="matrix" values="0 0 0 0 0 0 0 0 0 0 0 0 0 0 0 0 0 0 127 0" result="hardAlpha"/>
<feOffset dx="4" dy="4"/>
<feGaussianBlur stdDeviation="2"/>
<feComposite in2="hardAlpha" operator="out"/>
<feColorMatrix type="matrix" values="0 0 0 0 0.576471 0 0 0 0 0.576471 0 0 0 0 0.654902 0 0 0 1 0"/>
<feBlend mode="normal" in2="BackgroundImageFix" result="effect1_dropShadow"/>
<feBlend mode="normal" in="SourceGraphic" in2="effect1_dropShadow" result="shape"/>
</filter>
<filter id="filter3_d" x="526.88" y="25.4883" width="507.041" height="99.56" filterUnits="userSpaceOnUse" color-interpolation-filters="sRGB">
<feFlood flood-opacity="0" result="BackgroundImageFix"/>
<feColorMatrix in="SourceAlpha" type="matrix" values="0 0 0 0 0 0 0 0 0 0 0 0 0 0 0 0 0 0 127 0" result="hardAlpha"/>
<feOffset dx="2" dy="4"/>
<feGaussianBlur stdDeviation="2"/>
<feComposite in2="hardAlpha" operator="out"/>
<feColorMatrix type="matrix" values="0 0 0 0 0.576471 0 0 0 0 0.576471 0 0 0 0 0.654902 0 0 0 1 0"/>
<feBlend mode="normal" in2="BackgroundImageFix" result="effect1_dropShadow"/>
<feBlend mode="normal" in="SourceGraphic" in2="effect1_dropShadow" result="shape"/>
</filter>
</defs>
</svg>
