<svg width="48" height="48" viewBox="0 0 907 904" fill="none" xmlns="http://www.w3.org/2000/svg">
<path d="M413.03 1.58283C329.905 9.23116 246.779 41.4871 180.544 91.035C151.4 112.65 105.035 159.87 84.1712 188.468C66.9499 212.078 40.1246 262.624 29.1957 291.554C-13.195 404.284 -9.22085 525.66 39.7934 636.394C100.73 773.066 225.253 871.165 372.958 898.433C410.381 905.083 492.513 906.081 527.286 899.763C656.777 876.485 768.384 802.33 839.587 692.26C867.737 648.365 886.283 603.141 898.868 546.609C909.134 500.054 909.796 411.6 900.192 365.71C866.743 206.093 750.5 75.0733 595.84 23.1976C540.202 4.57563 470.324 -3.73775 413.03 1.58283ZM323.612 36.4991C255.721 86.047 222.603 148.896 222.603 227.375C222.603 265.949 228.233 289.559 245.786 326.803C256.383 349.416 264 359.724 285.858 381.007C333.548 427.894 374.945 445.851 447.804 450.839C493.838 453.832 530.598 462.145 554.774 474.117C645.848 520.339 695.525 622.095 674.992 718.531C658.764 794.016 604.12 855.868 530.598 883.136C511.059 890.119 503.773 890.784 452.772 890.784C411.043 890.784 389.186 889.122 368.321 884.799C279.897 865.844 210.35 829.598 148.42 770.074C77.8788 701.904 38.4687 627.416 16.9422 522.002C11.6433 496.396 11.3121 412.597 16.611 382.004C39.7934 242.339 131.53 119.301 257.046 58.1139C299.768 37.1642 340.834 24.1953 323.612 36.4991ZM478.935 191.128C501.123 210.748 502.448 239.346 481.915 259.298C452.44 288.229 401.439 268.277 401.439 227.707C401.439 199.442 420.647 181.152 450.122 181.152C464.694 181.152 469.33 182.815 478.935 191.128Z" fill="#1D1A73"/>
<path d="M436.213 625.734C413.362 636.042 398.79 665.306 404.751 688.251C416.011 728.82 463.038 742.121 493.506 713.191C510.728 697.229 516.027 670.626 505.76 651.007C493.506 627.396 459.395 614.76 436.213 625.734Z" fill="#1D1A73"/>
</svg>
